<?xml version="1.0" encoding="utf-8"?>
<!-- Generator: Adobe Illustrator 25.2.3, SVG Export Plug-In . SVG Version: 6.00 Build 0)  -->
<svg version="1.1" id="Layer_1" xmlns="http://www.w3.org/2000/svg" xmlns:xlink="http://www.w3.org/1999/xlink" x="0px" y="0px"
	 viewBox="0 0 493 161" style="enable-background:new 0 0 493 161;" xml:space="preserve">
<style type="text/css">
	.st0{fill:#72C8F1;}
</style>
<g>
	<path class="st0" d="M49.1,46.3h8.2L83,114.7H70.9l-17.7-51l-17.7,51H23.4L49.1,46.3z M35.5,90.9h36v10.8h-36V90.9z"/>
	<path class="st0" d="M81.1,46.3h49.2v10.8H81.1V46.3z M100.1,51.9h11.2v62.8h-11.2V51.9z"/>
	<path class="st0" d="M138.8,46.2H150v68.5h-11.2V46.2z M143.4,75.7H167c1.6,0,3-0.4,4.2-1.2c1.2-0.8,2.1-1.9,2.8-3.3
		c0.7-1.4,1-3.1,1-4.9c0-1.9-0.3-3.5-1-4.9c-0.7-1.4-1.6-2.5-2.8-3.3c-1.2-0.8-2.6-1.2-4.2-1.2h-23.6V46.2h23.9
		c3.9,0,7.2,0.8,10.2,2.5c2.9,1.7,5.2,4,6.8,7.1c1.6,3,2.4,6.6,2.4,10.5c0,4-0.8,7.5-2.4,10.6c-1.6,3-3.9,5.4-6.8,7.1
		c-2.9,1.7-6.3,2.5-10.1,2.5h-23.9V75.7z M159.9,84.4l11.7-2.2l18,32.5h-13.5L159.9,84.4z"/>
	<path class="st0" d="M212.6,114.7h-11.5V46.3h11.5V114.7z"/>
	<path class="st0" d="M239.7,114.4c-3-0.6-5.9-1.6-8.5-2.8c-2.7-1.3-5.1-2.8-7.3-4.7l6-9c2.6,2.2,5.6,3.9,8.9,5.1
		c3.3,1.1,6.8,1.7,10.4,1.7c4.6,0,8.1-0.8,10.7-2.4c2.5-1.6,3.8-3.9,3.8-6.9v0c0-2.1-0.6-3.8-1.7-5c-1.1-1.2-2.6-2.1-4.4-2.7
		c-1.8-0.6-4.2-1.1-7-1.6c-0.1,0-0.2,0-0.3,0c-0.1,0-0.2,0-0.3,0l-0.8-0.1c-4.6-0.8-8.3-1.6-11.3-2.7c-2.9-1-5.5-2.9-7.5-5.6
		c-2.1-2.7-3.1-6.4-3.1-11.3v0c0-4.3,1-8,2.9-11.1c1.9-3.1,4.8-5.4,8.5-7c3.7-1.6,8.2-2.4,13.4-2.4c2.4,0,4.9,0.3,7.4,0.8
		c2.5,0.5,4.9,1.3,7.2,2.4c2.4,1.1,4.7,2.4,6.9,3.9l-5.5,9.3c-2.6-1.9-5.3-3.3-8-4.3c-2.7-1-5.4-1.5-8-1.5c-4.3,0-7.7,0.8-10,2.4
		c-2.4,1.6-3.6,3.8-3.6,6.7v0c0,2.2,0.6,3.9,1.8,5.1c1.2,1.3,2.8,2.2,4.6,2.8c1.8,0.6,4.4,1.2,7.7,1.9c0.1,0,0.2,0.1,0.4,0.1
		c0.1,0,0.2,0,0.4,0.1c0.2,0,0.3,0.1,0.5,0.1c0.2,0,0.4,0.1,0.5,0.1c4.2,0.8,7.8,1.9,10.6,3.1c2.8,1.2,5.2,3.1,7.1,5.7
		s2.9,6.2,2.9,10.8v0.1c0,4.3-1,7.9-3,11c-2,3-4.9,5.4-8.8,6.9c-3.8,1.6-8.4,2.4-13.8,2.4C245.9,115.4,242.7,115.1,239.7,114.4z"/>
	<path class="st0" d="M286.5,46.3h11.2v68.4h-11.2V46.3z M291.9,77.4h21.9c1.8,0,3.4-0.4,4.8-1.2c1.4-0.8,2.4-2,3.2-3.6
		c0.8-1.5,1.2-3.3,1.2-5.3c0-2-0.4-3.8-1.1-5.4c-0.8-1.5-1.8-2.7-3.2-3.6c-1.4-0.8-3-1.3-4.8-1.3h-21.9V46.3h21.5
		c4.2,0,7.8,0.9,11,2.6s5.6,4.2,7.4,7.4c1.8,3.2,2.6,6.8,2.6,11c0,4.2-0.9,7.8-2.6,11s-4.2,5.6-7.4,7.3c-3.2,1.7-6.8,2.6-11,2.6
		h-21.5V77.4z"/>
	<path class="st0" d="M356.6,114.7h-11.5V46.3h11.5V114.7z"/>
	<path class="st0" d="M372.1,46.3h12.2l29.5,52.6l-1.1,1.2V46.3h10.9v68.4h-12.3l-29.4-51.8l1.1-1.2v53.1h-10.9V46.3z"/>
	<path class="st0" d="M457.7,46.3h8.2l25.7,68.4h-12.1l-17.7-51l-17.7,51H432L457.7,46.3z M444.1,90.9h36v10.8h-36V90.9z"/>
</g>
</svg>
